# xmcd CD database file
#
# Track frame offsets:
#	150
#	20285
#	43037
#
# Disc length: 768 seconds
#
# Revision: 0
# Processed by: cddbd v1.5PL3 Copyright (c) Steve Scherf et al.
# Submitted via: CDex 1.51
#
DISCID=1a02fe03
DTITLE=BAISER - psychoballet
DYEAR=1998
DGENRE=Rock
TTITLE0=psychoballet
TTITLE1=air
TTITLE2=message
EXTD=YEAR: 1998
EXTT0=
EXTT1=
EXTT2=
PLAYORDER=
